<?xml version="1.0" ?><!DOCTYPE svg  PUBLIC '-//W3C//DTD SVG 1.0//EN'  'http://www.w3.org/TR/2001/REC-SVG-20010904/DTD/svg10.dtd'><svg height="94px" style="shape-rendering:geometricPrecision; text-rendering:geometricPrecision; image-rendering:optimizeQuality; fill-rule:evenodd; clip-rule:evenodd" version="1.0" viewBox="0 0 18603 13661" width="128px" xml:space="preserve" xmlns="http://www.w3.org/2000/svg" xmlns:xlink="http://www.w3.org/1999/xlink"><defs><style type="text/css">
   <![CDATA[
    .fil0 {fill:#E6C131}
   ]]>
  </style></defs><g id="Layer_x0020_1"><path class="fil0" d="M18603 2164l0 9826c0,919 -752,1671 -1672,1671l-15260 0c-919,0 -1671,-752 -1671,-1671l0 -9826 9301 5160 9302 -5160zm-7290 8685l2805 0 0 726 -2805 0 0 -726zm0 -1781l5001 0 0 726 -5001 0 0 -726z"/><path class="fil0" d="M1671 0l15260 0c743,0 1377,491 1593,1165l-9223 5116 -9222 -5116c216,-674 849,-1165 1592,-1165z"/></g></svg>